<mxfile host="app.diagrams.net" modified="2023-10-31T07:53:21.778Z" agent="Mozilla/5.0 (Windows NT 10.0; Win64; x64) AppleWebKit/537.36 (KHTML, like Gecko) Chrome/118.0.0.0 Safari/537.36 Edg/118.0.2088.76" etag="49gVwISr-K9j6sMn8h5Y" version="22.0.8" type="github">
  <diagram name="Страница — 1" id="O3C2eEDDr393xnjBei2A">
    <mxGraphModel dx="1141" dy="1034" grid="0" gridSize="10" guides="1" tooltips="1" connect="1" arrows="1" fold="1" page="0" pageScale="1" pageWidth="827" pageHeight="1169" math="0" shadow="0">
      <root>
        <mxCell id="0" />
        <mxCell id="1" parent="0" />
        <mxCell id="O0mWV2WqzbjUr7fHWTJI-2" style="edgeStyle=none;curved=1;rounded=0;orthogonalLoop=1;jettySize=auto;html=1;fontSize=12;startSize=8;endSize=8;" parent="1" source="O0mWV2WqzbjUr7fHWTJI-1" edge="1">
          <mxGeometry relative="1" as="geometry">
            <mxPoint x="209.33338928222656" y="98.33332443237305" as="targetPoint" />
          </mxGeometry>
        </mxCell>
        <mxCell id="O0mWV2WqzbjUr7fHWTJI-4" style="edgeStyle=none;curved=1;rounded=0;orthogonalLoop=1;jettySize=auto;html=1;fontSize=12;startSize=8;endSize=8;entryX=0;entryY=0.5;entryDx=0;entryDy=0;" parent="1" source="O0mWV2WqzbjUr7fHWTJI-1" target="O0mWV2WqzbjUr7fHWTJI-5" edge="1">
          <mxGeometry relative="1" as="geometry">
            <mxPoint x="208.2666778564453" y="256.7333335876465" as="targetPoint" />
          </mxGeometry>
        </mxCell>
        <mxCell id="O0mWV2WqzbjUr7fHWTJI-13" value="" style="edgeStyle=none;curved=1;rounded=0;orthogonalLoop=1;jettySize=auto;html=1;fontSize=12;startSize=8;endSize=8;" parent="1" source="O0mWV2WqzbjUr7fHWTJI-1" target="O0mWV2WqzbjUr7fHWTJI-5" edge="1">
          <mxGeometry relative="1" as="geometry" />
        </mxCell>
        <mxCell id="O0mWV2WqzbjUr7fHWTJI-14" style="edgeStyle=none;curved=1;rounded=0;orthogonalLoop=1;jettySize=auto;html=1;fontSize=12;startSize=8;endSize=8;" parent="1" source="O0mWV2WqzbjUr7fHWTJI-1" target="O0mWV2WqzbjUr7fHWTJI-15" edge="1">
          <mxGeometry relative="1" as="geometry">
            <mxPoint x="229.66675313313817" y="273.6666603088379" as="targetPoint" />
          </mxGeometry>
        </mxCell>
        <mxCell id="O0mWV2WqzbjUr7fHWTJI-1" value="Пользователь" style="shape=umlActor;verticalLabelPosition=bottom;verticalAlign=top;html=1;outlineConnect=0;fontSize=16;" parent="1" vertex="1">
          <mxGeometry x="96" y="164" width="30" height="60" as="geometry" />
        </mxCell>
        <mxCell id="O0mWV2WqzbjUr7fHWTJI-3" value="Ввод данных о себе" style="ellipse;whiteSpace=wrap;html=1;fontSize=16;" parent="1" vertex="1">
          <mxGeometry x="205" y="36" width="120" height="80" as="geometry" />
        </mxCell>
        <mxCell id="O0mWV2WqzbjUr7fHWTJI-5" value="Предоставление датасета для анализа" style="ellipse;whiteSpace=wrap;html=1;fontSize=16;" parent="1" vertex="1">
          <mxGeometry x="226" y="143" width="163" height="102" as="geometry" />
        </mxCell>
        <mxCell id="O0mWV2WqzbjUr7fHWTJI-15" value="Создание модели" style="ellipse;whiteSpace=wrap;html=1;fontSize=16;" parent="1" vertex="1">
          <mxGeometry x="221.99675313313816" y="265.9966603088379" width="120" height="80" as="geometry" />
        </mxCell>
        <mxCell id="zZKKyNunQmkmlx4Y1nDw-1" value="Ввод ФИО" style="ellipse;whiteSpace=wrap;html=1;" vertex="1" parent="1">
          <mxGeometry x="461" y="-14" width="120" height="80" as="geometry" />
        </mxCell>
        <mxCell id="zZKKyNunQmkmlx4Y1nDw-4" value="&amp;lt;&amp;lt;include&amp;gt;&amp;gt;" style="endArrow=classic;html=1;rounded=0;" edge="1" parent="1" source="O0mWV2WqzbjUr7fHWTJI-3" target="zZKKyNunQmkmlx4Y1nDw-1">
          <mxGeometry width="50" height="50" relative="1" as="geometry">
            <mxPoint x="335" y="19" as="sourcePoint" />
            <mxPoint x="404" y="312" as="targetPoint" />
          </mxGeometry>
        </mxCell>
        <mxCell id="zZKKyNunQmkmlx4Y1nDw-7" value="" style="endArrow=block;html=1;rounded=0;exitX=1;exitY=0.5;exitDx=0;exitDy=0;endFill=0;" edge="1" parent="1" source="O0mWV2WqzbjUr7fHWTJI-3" target="zZKKyNunQmkmlx4Y1nDw-8">
          <mxGeometry width="50" height="50" relative="1" as="geometry">
            <mxPoint x="325" y="76" as="sourcePoint" />
            <mxPoint x="452" y="108" as="targetPoint" />
          </mxGeometry>
        </mxCell>
        <mxCell id="zZKKyNunQmkmlx4Y1nDw-8" value="Ввод контактной информации" style="ellipse;whiteSpace=wrap;html=1;" vertex="1" parent="1">
          <mxGeometry x="472" y="86" width="120" height="80" as="geometry" />
        </mxCell>
        <mxCell id="zZKKyNunQmkmlx4Y1nDw-9" value="Ввод параметров" style="ellipse;whiteSpace=wrap;html=1;" vertex="1" parent="1">
          <mxGeometry x="517" y="186" width="120" height="80" as="geometry" />
        </mxCell>
        <mxCell id="zZKKyNunQmkmlx4Y1nDw-10" value="&amp;lt;&amp;lt;include&amp;gt;&amp;gt;" style="endArrow=classic;html=1;rounded=0;entryX=0.033;entryY=0.375;entryDx=0;entryDy=0;entryPerimeter=0;exitX=1;exitY=0.5;exitDx=0;exitDy=0;" edge="1" parent="1" source="O0mWV2WqzbjUr7fHWTJI-5" target="zZKKyNunQmkmlx4Y1nDw-9">
          <mxGeometry width="50" height="50" relative="1" as="geometry">
            <mxPoint x="392" y="135" as="sourcePoint" />
            <mxPoint x="377" y="266" as="targetPoint" />
          </mxGeometry>
        </mxCell>
        <mxCell id="zZKKyNunQmkmlx4Y1nDw-11" value="Выбор типа компонента или устройства" style="ellipse;whiteSpace=wrap;html=1;" vertex="1" parent="1">
          <mxGeometry x="499" y="309" width="120" height="80" as="geometry" />
        </mxCell>
        <mxCell id="zZKKyNunQmkmlx4Y1nDw-13" value="&amp;lt;&amp;lt;extend&amp;gt;&amp;gt;" style="endArrow=classic;html=1;rounded=0;exitX=0.026;exitY=0.313;exitDx=0;exitDy=0;exitPerimeter=0;entryX=1;entryY=0.5;entryDx=0;entryDy=0;" edge="1" parent="1" source="zZKKyNunQmkmlx4Y1nDw-11" target="O0mWV2WqzbjUr7fHWTJI-15">
          <mxGeometry width="50" height="50" relative="1" as="geometry">
            <mxPoint x="339" y="431" as="sourcePoint" />
            <mxPoint x="389" y="381" as="targetPoint" />
          </mxGeometry>
        </mxCell>
      </root>
    </mxGraphModel>
  </diagram>
</mxfile>
